# xmcd
#
# Track frame offsets:
#	150
#	16370
#	27094
#	42771
#	54853
#	65918
#	85119
#	96658
#	106191
#	124877
#	136820
#	152037
#	166216
#	180392
#	195483
#	206472
#	218859
#	229760
#	243427
#	256573
#	275412
#	285885
#	296939
#	309149
#
# Disc length: 4349 seconds
#
# Revision: 1
# Processed by: cddbd v1.5.2PL0 Copyright (c) Steve Scherf et al.
# Submitted via: audiograbber 1.83.01
#
DISCID=4510fb18
DTITLE=Linda Ronstadt - Greatest Hits
DYEAR=1976
DGENRE=
TTITLE0=You're No Good
TTITLE1=Silver Threads And Golden Needles
TTITLE2=Desperado
TTITLE3=Love Is A Rose
TTITLE4=That'll Be The Day
TTITLE5=Long, Long Time
TTITLE6=Different Drum
TTITLE7=When Will I Be Loved
TTITLE8=Love Has No Pride
TTITLE9=Heat Wave
TTITLE10=It Doesn't Matter Anymore
TTITLE11=Tracks Of My Tears
TTITLE12=Southwind
TTITLE13=The Devil To Pay
TTITLE14='Cause I Love you
TTITLE15=See Ruby Fall
TTITLE16=Route 1, Box 144
TTITLE17=Sing A Traveling Song
TTITLE18=If I Were A Carpenter
TTITLE19=To Beat The Devil
TTITLE20=Blistered
TTITLE21=Wrinkled, Crinkled, Wadded Dollar Bill
TTITLE22=I've Got A Thing About Trains
TTITLE23=Jesus Was A Carpenter
EXTD=
EXTT0=
EXTT1=
EXTT2=
EXTT3=
EXTT4=
EXTT5=
EXTT6=
EXTT7=
EXTT8=
EXTT9=
EXTT10=
EXTT11=
EXTT12=
EXTT13=
EXTT14=
EXTT15=
EXTT16=
EXTT17=
EXTT18=
EXTT19=
EXTT20=
EXTT21=
EXTT22=
EXTT23=
PLAYORDER=
